<svg xmlns="http://www.w3.org/2000/svg" viewBox="0 0 2946.26 2500.04"><defs><style>.cls-1,.cls-2{fill:none;stroke:#000;stroke-miterlimit:10;}.cls-1{stroke-width:20px;}.cls-2{stroke-width:10px;}</style></defs><g id="Ebene_2" data-name="Ebene 2"><path class="cls-1" d="M1614.5,2910.5s-3-54-3-58-16-69-16-69l-9-65,2-52,35-70" transform="translate(-21.34 -496.48)"/><polyline class="cls-1" points="1725.16 2177.02 1709.16 2158.02 1651.16 2138.02"/><polyline class="cls-1" points="1362.16 1905.02 1389.16 1936.02 1403.16 1984.02 1454.16 2035.02 1557.16 2072.02 1646.16 2126.02 1679.16 2204.02 1677.16 2351.52"/><polyline class="cls-1" points="1642.16 2438.02 1705.16 2282.02 1751.16 2145.02 1752.16 2027.02 1742.16 1975.02"/><path class="cls-1" d="M1533.5,980.5c1,3,7,39,7,39l16,60" transform="translate(-21.34 -496.48)"/><polyline class="cls-1" points="526.16 1160.02 563.16 1149.02 609.16 1150.02 658.16 1172.02 713.16 1213.02 776.16 1260.02 834.16 1284.02 923.16 1290.02"/><polyline class="cls-1" points="737.16 1100.02 708.16 1128.02 662.16 1148.02 616.16 1153.02"/><polyline class="cls-1" points="443.16 1283.02 528.16 1296.02 611.16 1332.02 684.16 1377.02 749.16 1404.02 833.16 1404.02 879.16 1393.02"/><path class="cls-1" d="M910.5,926.5l51,22,69,56,66,40s46,20,49,20,75-24,75-24l93-120,51-108,16-88-8-44-24-41" transform="translate(-21.34 -496.48)"/><polyline class="cls-1" points="1455.16 170.02 1424.16 219.02 1381.16 251.02 1347.16 295.02"/><polyline class="cls-1" points="716.16 775.02 755.16 813.02 800.16 836.02 864.16 843.02 932.16 830.02 983.16 813.02 1037.16 818.02 1082.16 833.02 1119.16 877.02 1157.16 953.02 1170.16 1012.02 1202.16 1073.02"/><polyline class="cls-1" points="1200.16 543.02 1183.16 575.02 1186.16 609.02 1184.16 665.02 1168.16 722.02 1144.16 769.02 1107.16 816.02 1096.16 848.02"/><polyline class="cls-1" points="271.16 975.02 271.16 1019.02 295.16 1075.02 338.16 1118.02 371.16 1146.02 404.16 1190.02"/><polyline class="cls-1" points="314.16 1093.02 359.16 1091.02 397.16 1055.02 421.16 1021.02 467.16 997.02 520.16 992.02 570.16 992.02 617.16 963.02"/><polyline class="cls-1" points="609.16 1030.02 607.16 987.02 625.16 945.02 660.16 921.02 703.16 923.02 753.16 954.02 783.16 998.02 815.16 1057.02 839.16 1118.02 878.16 1170.02 931.16 1204.02"/><polyline class="cls-1" points="722.16 934.02 753.16 898.02 799.16 880.02 865.16 882.02 926.16 911.02 967.16 976.02 990.16 1062.02 1012.16 1127.02 1049.16 1179.02 1114.16 1203.02"/><polyline class="cls-1" points="203.16 723.02 235.16 649.02 292.16 589.02 339.16 505.02 394.16 444.02 482.16 376.02 539.16 340.02"/><polyline class="cls-1" points="412.16 346.02 479.16 356.02 557.16 335.02 623.16 285.02 689.16 260.02 764.16 241.02 847.16 212.02 923.16 157.02 1001.16 75.02"/><polyline class="cls-1" points="199.16 592.02 241.16 595.02 295.16 562.02 321.16 537.02"/><polyline class="cls-1" points="1196.16 98.02 1127.16 135.02 1013.16 147.02 892.16 179.02"/><polyline class="cls-1" points="1908.16 796.02 1915.16 833.02 2001.16 889.02 2059.16 885.02"/><polyline class="cls-1" points="1952.16 858.02 1910.16 917.02 1836.16 960.02 1780.16 976.02 1696.16 1012.02 1539.16 1066.02 1398.16 1117.02 1269.16 1144.02 1183.16 1188.02 1119.16 1200.02 1057.16 1243.02 965.16 1324.02 884.16 1388.02 757.16 1506.02 720.16 1583.02 714.16 1672.02 746.16 1752.02 812.16 1813.02 937.16 1839.02 1048.16 1893.02 1144.16 1924.02 1269.16 1919.02 1372.16 1903.02 1478.16 1912.02 1630.16 1880.02 1813.16 1820.02 1906.16 1789.02 2010.16 1769.02 2066.16 1737.02 2150.16 1680.02 2193.16 1650.02"/><polyline class="cls-1" points="2043.16 1692.02 2122.16 1662.02 2236.16 1642.02 2305.16 1622.02"/><polyline class="cls-1" points="1667.16 62.02 1728.16 39.02 1801.16 55.02 1895.16 109.02 1997.16 117.02 2098.16 164.02 2242.91 251.06 2251.16 256.02 2308.16 341.02"/><polyline class="cls-1" points="1655.16 233.02 1656.16 282.02 1666.16 316.02 1663.16 426.02 1625.16 490.02 1563.16 556.02 1525.16 595.02 1503.16 673.02 1491.16 734.02 1472.16 799.02 1442.16 842.02 1427.16 899.02 1422.16 953.02 1438.16 999.02 1522.16 1072.02"/><polyline class="cls-1" points="54.16 736.02 10.16 906.02 19.16 976.02 55.16 1020.02 148.16 1067.02"/><polyline class="cls-1" points="74.16 812.02 47.16 707.02 108.16 581.02 164.16 518.02"/><polyline class="cls-1" points="163.16 616.02 154.16 556.02 173.16 487.02 263.16 374.02 377.16 282.02 638.16 138.02"/><path class="cls-1" d="M603.5,698.5c1-3,66-75,66-75l117-58,66-21,162-12,139-26,76,2,106,21" transform="translate(-21.34 -496.48)"/><polyline class="cls-1" points="1198.16 70.02 1331.16 28.02 1415.16 24.02 1482.16 43.02 1581.16 38.02 1662.16 57.02 1710.16 116.02 1721.16 207.02 1691.16 310.02 1665.16 359.02"/><polyline class="cls-1" points="2239.16 249.02 2307.16 263.02 2378.16 298.02 2447.16 354.02 2509.16 445.02 2504.16 535.02"/><polyline class="cls-1" points="2508.16 464.02 2597.16 536.02 2680.16 650.02 2722.16 751.02 2720.16 867.02"/><polyline class="cls-1" points="2721.16 784.02 2759.16 829.02 2818.16 874.02 2851.16 936.02 2857.16 1042.02 2832.16 1126.02"/><polyline class="cls-1" points="2856.16 1027.02 2921.16 1145.02 2936.16 1234.02 2925.16 1335.02 2904.16 1407.02 2863.16 1477.02 2796.16 1542.02 2727.16 1562.02 2663.66 1562.02"/><polyline class="cls-1" points="2535.16 1556.02 2583.16 1573.02 2652.16 1568.02 2712.16 1538.02 2782.16 1480.02"/><polyline class="cls-1" points="1220.16 1604.02 1300.16 1609.02 1382.16 1648.02 1494.16 1694.02 1629.16 1687.02 1758.16 1640.02 1878.16 1586.02 2048.16 1549.02"/><polyline class="cls-1" points="1753.16 1543.02 1825.16 1522.02 1892.16 1522.02 2050.16 1549.02 2183.16 1552.02 2320.16 1570.02 2474.16 1608.02 2627.16 1648.02 2697.16 1664.02 2768.16 1665.02 2831.16 1632.02 2883.16 1560.02 2899.16 1468.02 2898.16 1417.02"/><polyline class="cls-1" points="1080.16 1750.02 1119.16 1759.02 1179.16 1758.02 1281.16 1724.02 1352.16 1689.02 1467.16 1683.02"/><polyline class="cls-1" points="125.16 999.02 147.16 1066.02 225.16 1134.02"/><polyline class="cls-1" points="29.16 988.02 41.16 1073.02 71.16 1149.02 118.16 1209.02 197.16 1246.02 271.16 1265.02 326.16 1295.02"/><polyline class="cls-1" points="118.16 1209.02 188.16 1294.02 275.16 1355.02 368.16 1359.02 456.16 1369.02 579.16 1403.02"/><polyline class="cls-1" points="303.16 1356.02 417.16 1397.02 613.16 1486.02 704.16 1522.02 750.16 1517.02"/><polyline class="cls-1" points="424.16 664.02 434.16 619.02 447.16 562.02 496.16 512.02 556.16 482.02 602.16 432.02 667.16 403.02 847.16 363.02"/><polyline class="cls-1" points="352.16 716.02 377.16 647.02 440.16 593.02"/><polyline class="cls-1" points="311.16 962.02 318.16 899.02 354.16 842.02 418.16 797.02"/><polyline class="cls-1" points="394.16 877.02 423.16 780.02 477.16 725.02 519.16 697.02 629.16 646.02"/><polyline class="cls-1" points="599.16 710.02 641.16 622.02 713.16 564.02 780.16 533.02 837.16 530.02 882.16 505.02 939.16 517.02"/><polyline class="cls-1" points="876.16 299.02 956.16 289.02 1042.16 302.02 1090.16 330.02 1141.16 380.02"/><polyline class="cls-1" points="1129.16 227.02 1080.16 270.02 1067.16 292.02 1074.33 320.67"/><polyline class="cls-1" points="1292.16 790.02 1278.16 825.02 1278.16 883.02 1312.16 976.02 1342.16 1047.02 1336.16 1101.02 1314.16 1134.02"/><polyline class="cls-1" points="1477.16 2044.02 1478.16 2076.02 1473.16 2136.02 1472.16 2196.02 1487.16 2281.02 1501.16 2370.02 1753.16 2491.02"/><polyline class="cls-1" points="1879.16 2063.02 1881.16 2090.02 1879.16 2129.02 1854.16 2208.02 1789.16 2379.02 1753.16 2491.02"/><polyline class="cls-1" points="1808.16 788.02 1771.16 807.02 1705.16 814.02 1661.16 846.02 1607.16 903.02 1593.16 948.02"/><polyline class="cls-1" points="1660.16 847.02 1664.16 818.02 1652.16 785.02 1634.16 750.02 1636.16 702.02 1655.16 655.02 1690.16 613.02 1725.16 590.02 1760.16 576.02 1816.16 582.02 1867.16 601.02 1918.16 605.02 1984.16 588.02 2052.16 536.02"/><path class="cls-1" d="M994.5,2238.5l26-46,14-105,46-49,79-24,49-55,78-27,89-9,97-40s86-13,90-13,75-32,75-32l42-86,42-50,89-27" transform="translate(-21.34 -496.48)"/><polyline class="cls-1" points="1107.16 1396.02 1165.16 1375.02 1225.16 1378.02 1258.16 1356.02 1281.16 1311.02 1273.16 1267.02"/><polyline class="cls-1" points="822.16 1643.02 865.16 1655.02 914.16 1651.02 1012.16 1599.02"/><polyline class="cls-1" points="1243.16 1367.02 1256.16 1391.02 1284.16 1417.02 1309.16 1431.02"/><polyline class="cls-1" points="1623.16 1330.02 1678.16 1325.02 1737.16 1290.02 1836.16 1270.02 1965.16 1229.02 2079.16 1190.02 2174.16 1133.02 2223.16 1069.02 2296.16 1051.02 2366.16 1013.02 2401.16 948.02"/><polyline class="cls-1" points="2361.16 820.02 2395.16 875.02 2400.16 932.02 2404.16 973.02 2437.16 1013.02 2489.16 1046.02"/><polyline class="cls-1" points="1535.16 1543.02 1590.16 1484.02 1654.16 1444.02 1713.16 1436.02 1781.16 1445.02 1877.16 1444.02"/><path class="cls-1" d="M1719.5,1934.5l21-29s11-38,11-40,24-49,24-49l36-41" transform="translate(-21.34 -496.48)"/><path class="cls-1" d="M1906.5,1098.5l54,32,38,22,72,1s58,17,61,20,50,49,50,49l15,74-14,98-36,61-30,31-20,38-51,41-62,31" transform="translate(-21.34 -496.48)"/><polyline class="cls-1" points="2252.16 962.02 2201.16 959.02 2161.16 936.02 2160.16 899.02"/><path class="cls-1" d="M2111.5,1496.5c1-1,32-23,32-23l36-16,29-9" transform="translate(-21.34 -496.48)"/><polyline class="cls-1" points="2228.16 597.02 2206.16 643.02 2162.16 671.02 2112.16 679.02"/><path class="cls-1" d="M1965.5,1804.5l55,36,89,12,128-1,75,15,90,37,100,10,52-2,70,11,70-22,94-92,15-67s-6-43-7-47-24-58-24-58" transform="translate(-21.34 -496.48)"/><polyline class="cls-1" points="2826.16 1155.02 2799.16 1244.02 2772.16 1291.02"/><path class="cls-1" d="M2248.5,1767.5s32,59,33,62,28,36,28,36" transform="translate(-21.34 -496.48)"/><polyline class="cls-1" points="1764.16 362.02 1844.16 341.02 1962.16 355.02 2093.16 369.02 2156.16 405.02 2244.16 482.02 2376.16 578.02 2422.16 643.02 2473.16 729.02 2553.16 795.02 2566.16 841.02 2548.16 909.02"/><polyline class="cls-1" points="2186.16 497.02 2228.16 534.02 2282.16 553.02 2354.16 581.02 2396.16 607.02"/><polyline class="cls-1" points="1881.16 210.02 1954.16 255.02 2075.16 367.02"/><polyline class="cls-1" points="2419.16 1206.02 2448.16 1185.02 2517.16 1160.02 2586.16 1116.02 2632.16 1029.02 2639.16 943.02 2617.16 879.02 2561.16 822.02"/><path class="cls-1" d="M2604.5,1614.5l-1,36,29,43s14,33,14,35,2,41,2,41l-7,37" transform="translate(-21.34 -496.48)"/></g><g id="Ebene_3" data-name="Ebene 3"><polyline class="cls-2" points="1831.16 1814.02 1967.16 1807.02 2108.16 1780.02 2240.16 1730.02 2355.16 1684.02 2446.16 1655.02 2592.16 1639.02"/><path class="cls-1" d="M1670.5,2371.5l11,25,16,32,71,45,151,98,78,49s59,19,63,20,103,9,103,9l88-3,48-17,47-29,36-19,19-21,32-14,20-23,10-25,29-19,15-35,30-17,50-59,55-60,20-33,3-70-30-64" transform="translate(-21.34 -496.48)"/><polyline class="cls-2" points="1659.16 1879.02 1693.16 1896.02 1741.16 1917.02 1897.16 1924.02 2004.16 1932.02 2109.16 1933.02 2214.16 1902.02 2281.16 1863.02 2402.16 1784.02"/><polyline class="cls-2" points="1691.16 1869.02 1815.16 1881.02 2042.16 1892.02 2160.16 1884.02 2304.16 1848.02"/><path class="cls-2" d="M1753.5,2359.5l223-1,109-2,152-24,166-46,123-37,69-18,69-15" transform="translate(-21.34 -496.48)"/><path class="cls-2" d="M1800.5,2340.5l196-9,166-18s173-44,178-44,139-48,139-48l69-19,111-8" transform="translate(-21.34 -496.48)"/><polyline class="cls-2" points="2073.16 1787.02 2211.16 1773.02 2374.16 1720.02 2529.16 1677.02 2627.16 1675.02"/><polyline class="cls-2" points="2324.16 1835.02 2416.16 1804.02 2535.16 1771.02 2611.16 1755.02 2642.16 1751.02"/><polyline class="cls-2" points="2132.16 1926.02 2221.16 1965.02 2350.16 1977.56 2486.16 1948.02"/><polyline class="cls-2" points="2162.16 1917.02 2208.66 1935.49 2324.16 1940.23 2456.26 1930.02 2535.16 1909.02"/><path class="cls-2" d="M2218.5,2403.5l123,9s113-10,115-10,76-18,76-18l58-19" transform="translate(-21.34 -496.48)"/><polyline class="cls-2" points="2248.16 1882.02 2317 1885.02 2433.16 1874.02 2530.33 1848.02 2619.16 1814.02"/><polyline class="cls-2" points="2290.16 1857.02 2375.66 1848.02 2449.16 1828.02 2543.16 1801.02 2586.63 1791.52 2638.16 1784.02"/><polyline class="cls-2" points="1910.16 1925.02 1997.66 1956.23 2073.16 1968.67 2200.85 1975.02 2248.16 1968.02"/><path class="cls-2" d="M1727.5,2415.67s99,27.37,111,32.6,147,31.23,147,31.23l115,18.83,156,11.17,130-10,78.06-25.46,39.94-27.54" transform="translate(-21.34 -496.48)"/><polyline class="cls-2" points="1743.37 1950.02 1840.55 1977.56 1944.16 1998.02 2098.16 2027.02 2259.16 2036.02 2364.16 2023.02 2472.16 1981.02"/><polyline class="cls-2" points="1836.16 2004.02 1975.07 2036.02 2118.16 2055.02 2231.16 2058.02 2324.16 2051.04 2398.78 2036.02 2435.16 2019.02"/><polyline class="cls-2" points="1913.16 2052.02 1975.16 2074.02 2039.16 2082.02 2125.16 2091.02 2261.89 2091.02 2337.16 2075.02 2379.16 2065.02"/><polyline class="cls-2" points="1970.92 2091.02 2073.16 2113.26 2162.16 2116.82 2230.16 2113.02 2334.16 2099.02"/></g></svg>